<?xml version="1.0" encoding="UTF-8"?>
<!-- Qadaya favicon -->
<svg xmlns="http://www.w3.org/2000/svg" viewBox="0 0 64 64" width="64" height="64">
  <defs>
    <linearGradient id="bg" x1="0" x2="1" y1="0" y2="1">
      <stop offset="0" stop-color="#14345a" />
      <stop offset="1" stop-color="#2d6a87" />
    </linearGradient>
    <linearGradient id="accent" x1="0" x2="1" y1="0" y2="1">
      <stop offset="0" stop-color="#f3d9a4" />
      <stop offset="1" stop-color="#d4a95d" />
    </linearGradient>
  </defs>
  <rect width="64" height="64" rx="14" fill="url(#bg)" />
  <path d="M32 12c-8.84 0-16 7.16-16 16s7.16 16 16 16c2.59 0 5.04-.61 7.2-1.7l5.45 5.44 3.54-3.54-5.1-5.1C46.17 36.11 48 32.22 48 28c0-8.84-7.16-16-16-16Zm0 6c5.52 0 10 4.48 10 10s-4.48 10-10 10-10-4.48-10-10 4.48-10 10-10Z" fill="#ffffff"/>
  <path d="M43.5 43.5 50 50" stroke="url(#accent)" stroke-width="4.5" stroke-linecap="round"/>
  <path d="M23 26.5h18" stroke="url(#accent)" stroke-width="3" stroke-linecap="round" opacity="0.9"/>
  <path d="M28 21v11.5" stroke="url(#accent)" stroke-width="2.5" stroke-linecap="round" opacity="0.9"/>
  <path d="M36 21v11.5" stroke="url(#accent)" stroke-width="2.5" stroke-linecap="round" opacity="0.9"/>
</svg>
